<?xml version="1.0" encoding="UTF-8"?>
<svg width="196px" height="187px" viewBox="0 0 196 187" version="1.1" xmlns="http://www.w3.org/2000/svg" xmlns:xlink="http://www.w3.org/1999/xlink">
    <!-- Generator: Sketch 52.6 (67491) - http://www.bohemiancoding.com/sketch -->
    <title>Group 6</title>
    <desc>Created with Sketch.</desc>
    <defs>
        <path d="M30.4695722,32.6502 C24.8065889,91.2175611 -20.6125944,129.087139 13.2323278,172.4514 C21.5340889,183.088583 28.0655833,186.961561 34.3955333,187 L34.5908444,187 C42.8043,186.948056 50.7060889,180.48305 61.7297389,174.018044 C76.7448,165.213461 97.5527056,156.409917 132.830256,163.80265 C214.169022,180.850817 204.115694,93.2517056 170.269733,49.8874444 C149.556367,23.3479889 103.958494,0.900716667 70.3930333,0.901755556 C49.1124333,0.902794444 32.6668222,9.92554444 30.4695722,32.6502" id="path-1"></path>
        <linearGradient x1="-0.649420243%" y1="80.5367515%" x2="86.9123865%" y2="25.2190967%" id="linearGradient-3">
            <stop stop-color="#FFFFFF" offset="0%"></stop>
            <stop stop-color="#2DD8B8" offset="100%"></stop>
        </linearGradient>
    </defs>
    <g id="Homepage" stroke="none" stroke-width="1" fill="none" fill-rule="evenodd">
        <g id="Landing" transform="translate(-1192.000000, -148.000000)">
            <g id="Masthead" transform="translate(-129.000000, -63.000000)">
                <g id="Group-7" transform="translate(1275.000000, 0.000000)">
                    <g id="Group-6" transform="translate(46.000000, 211.000000)">
                        <mask id="mask-2" fill="white">
                            <use xlink:href="#path-1"></use>
                        </mask>
                        <g id="Clip-5"></g>
                        <path d="M30.4695722,32.6502 C24.8065889,91.2175611 -20.6125944,129.087139 13.2323278,172.4514 C21.5340889,183.088583 28.0655833,186.961561 34.3955333,187 L34.5908444,187 C42.8043,186.948056 50.7060889,180.48305 61.7297389,174.018044 C76.7448,165.213461 97.5527056,156.409917 132.830256,163.80265 C214.169022,180.850817 204.115694,93.2517056 170.269733,49.8874444 C149.556367,23.3479889 103.958494,0.900716667 70.3930333,0.901755556 C49.1124333,0.902794444 32.6668222,9.92554444 30.4695722,32.6502" id="Fill-4" fill="url(#linearGradient-3)" mask="url(#mask-2)"></path>
                    </g>
                </g>
            </g>
        </g>
    </g>
</svg>
