<?xml version="1.0" encoding="UTF-8"?>
<svg width="32px" height="32px" viewBox="0 0 32 32" version="1.1" xmlns="http://www.w3.org/2000/svg" xmlns:xlink="http://www.w3.org/1999/xlink">
    <!-- Generator: Sketch 52.6 (67491) - http://www.bohemiancoding.com/sketch -->
    <title>Group 3</title>
    <desc>Created with Sketch.</desc>
    <defs>
        <polygon id="path-1" points="0 0 32 0 32 32 0 32"></polygon>
    </defs>
    <g id="People" stroke="none" stroke-width="1" fill="none" fill-rule="evenodd">
        <g id="People-Talent-Individual" transform="translate(-919.000000, -787.000000)">
            <g id="Group-4" transform="translate(901.000000, 770.000000)">
                <g id="Group-3" transform="translate(18.000000, 17.000000)">
                    <mask id="mask-2" fill="white">
                        <use xlink:href="#path-1"></use>
                    </mask>
                    <g id="Clip-2"></g>
                    <path d="M29.633426,0 L2.36150516,0 C1.05600338,0 0,1.0323489 0,2.30518498 L0,29.694815 C0,30.9693407 1.05600338,32 2.36150516,32 L29.6294836,32 C30.9332958,32 32,30.9693407 32,29.694815 L32,2.30518498 C32,1.0323489 30.9332958,0 29.6294836,0 L29.633426,0 Z M4.73990637,27.2691049 L9.49220318,27.2691049 L9.49220318,11.9995776 L4.73990637,11.9995776 L4.73990637,27.2691049 Z M7.11605477,9.91066211 C5.59090429,9.91066211 4.36537717,8.67612376 4.36537717,7.1571685 C4.36537717,5.63990285 5.59203069,4.4064909 7.11605477,4.4064909 C8.63613644,4.4064909 9.86785878,5.63990285 9.86785878,7.1571685 C9.86785878,8.67612376 8.63501003,9.91066211 7.11605477,9.91066211 Z M27.2629096,27.2691049 L22.5241297,27.2691049 L22.5241297,19.8438523 C22.5241297,18.0731458 22.4880848,15.7944313 20.055053,15.7944313 C17.5837235,15.7944313 17.2069415,17.7211447 17.2069415,19.7131895 L17.2069415,27.2691049 L12.4681615,27.2691049 L12.4681615,12.0001408 L17.0199585,12.0001408 L17.0199585,14.0811715 L17.0813475,14.0811715 C17.7172023,12.8815516 19.2643176,11.6149108 21.5745714,11.6149108 C26.3758668,11.6149108 27.264036,14.7744729 27.264036,18.8880988 L27.264036,27.2691049 L27.2629096,27.2691049 Z" id="Fill-1" fill="#FFFFFF" mask="url(#mask-2)"></path>
                </g>
            </g>
        </g>
    </g>
</svg>