<?xml version="1.0" encoding="UTF-8"?>
<svg width="153px" height="51px" viewBox="0 0 153 51" version="1.1" xmlns="http://www.w3.org/2000/svg" xmlns:xlink="http://www.w3.org/1999/xlink">
    <!-- Generator: Sketch 52.6 (67491) - http://www.bohemiancoding.com/sketch -->
    <title>Logo</title>
    <desc>Created with Sketch.</desc>
    <defs>
        <polygon id="path-1" points="0 51 153 51 153 0 0 0"></polygon>
    </defs>
    <g id="Symbols" stroke="none" stroke-width="1" fill="none" fill-rule="evenodd">
        <g id="Footer" transform="translate(-39.000000, -87.000000)">
            <g id="Logo">
                <g transform="translate(39.000000, 87.000000)">
                    <path d="M52.6065574,21.7846608 C52.9180328,21.3097345 53.2295082,20.9026549 53.6032787,20.4955752 C53.9770492,20.1563422 54.4131148,19.8849558 54.9114754,19.6814159 C55.4098361,19.4778761 55.9081967,19.4100295 56.4688525,19.4100295 C58.8983607,19.4100295 60.3934426,20.7669617 61.0786885,23.4129794 L51.9213115,23.4129794 C52.1081967,22.8702065 52.295082,22.259587 52.6065574,21.7846608 M59.6459016,32.5722714 C58.8983607,33.1828909 57.9639344,33.4542773 56.842623,33.4542773 C55.4098361,33.4542773 54.2262295,32.9115044 53.2918033,31.8938053 C52.357377,30.8082596 51.8590164,29.3834808 51.7344262,27.619469 L65.8131148,27.619469 L65.8131148,26.4660767 C65.8131148,22.8702065 65.0032787,20.0884956 63.3213115,18.0530973 C61.6393443,16.0176991 59.3344262,15 56.4688525,15 C53.6032787,15 51.2983607,16.0855457 49.5540984,18.1887906 C47.8098361,20.2920354 47,23.1415929 47,26.5339233 C47,29.9941003 47.8721311,32.7758112 49.6786885,34.879056 C51.4852459,36.9823009 53.7901639,38 56.7180328,38 C57.7147541,38 58.7114754,37.8643068 59.5836066,37.660767 C60.4557377,37.3893805 61.2655738,37.0501475 62.0131148,36.5073746 C62.7606557,35.9646018 63.4459016,35.3539823 64.1311475,34.539823 C64.8163934,33.7256637 65.4393443,32.7758112 66,31.6902655 L62.1377049,29.3156342 C61.1409836,30.8082596 60.3311475,31.9616519 59.6459016,32.5722714" id="Fill-1" fill="#FFFFFF"></path>
                    <polygon id="Fill-3" fill="#FFFFFF" points="35.5321101 27.102061 30.266055 15 25 15 35.4678899 38 46 15 40.733945 15"></polygon>
                    <path d="M6.84541063,15.6646526 C6.2173913,15.9969789 5.46376812,16.6616314 4.58454106,17.592145 L4.58454106,15.6646526 L0,15.6646526 L0,37 L4.58454106,37 L4.58454106,25.9003021 C4.58454106,21.8459215 5.84057971,19.7854985 8.352657,19.7854985 C9.16908213,19.7854985 10.0483092,20.1178248 10.9275362,20.7824773 L13,16.2628399 C11.6811594,15.3987915 10.4251208,15 9.23188406,15 C8.28985507,15.0664653 7.53623188,15.265861 6.84541063,15.6646526" id="Fill-5" fill="#FFFFFF"></path>
                    <mask id="mask-2" fill="white">
                        <use xlink:href="#path-1"></use>
                    </mask>
                    <g id="Clip-8"></g>
                    <polygon id="Fill-7" fill="#FFFFFF" mask="url(#mask-2)" points="16 35 21 35 21 15 16 15"></polygon>
                    <path d="M77.8454106,15.6646526 C77.2173913,15.9969789 76.4637681,16.6616314 75.5845411,17.592145 L75.5845411,15.6646526 L71,15.6646526 L71,37 L75.5845411,37 L75.5845411,25.9003021 C75.5845411,21.8459215 76.8405797,19.7854985 79.352657,19.7854985 C80.1690821,19.7854985 81.0483092,20.1178248 81.9275362,20.7824773 L84,16.2628399 C82.6811594,15.3987915 81.4251208,15 80.2318841,15 C79.352657,15.0664653 78.5362319,15.265861 77.8454106,15.6646526" id="Fill-9" fill="#FFFFFF" mask="url(#mask-2)"></path>
                    <path d="M114.669475,21.7846608 C114.980951,21.3097345 115.292426,20.9026549 115.666197,20.4955752 C116.039344,20.1563422 116.47541,19.8849558 116.97377,19.6814159 C117.472754,19.4778761 117.971115,19.4100295 118.531148,19.4100295 C120.961279,19.4100295 122.456361,20.7669617 123.141607,23.4129794 L113.983607,23.4129794 C114.170492,22.8702065 114.358,22.259587 114.669475,21.7846608 M121.70882,32.5722714 C120.961279,33.1828909 120.026852,33.4542773 118.905541,33.4542773 C117.472754,33.4542773 116.289148,32.9115044 115.354721,31.8938053 C114.420295,30.8082596 113.921934,29.3834808 113.797344,27.619469 L127.87541,27.619469 L127.87541,26.4660767 C127.87541,22.8702065 127.065574,20.0884956 125.383607,18.0530973 C123.702262,16.0176991 121.397344,15 118.531148,15 C115.666197,15 113.360656,16.0855457 111.617016,18.1887906 C109.872754,20.2920354 109,23.1415929 109,26.5339233 C109,29.9941003 109.872754,32.7758112 111.678689,34.879056 C113.485869,36.9823009 115.790787,38 118.718656,38 C119.715377,38 120.711475,37.8643068 121.58423,37.660767 C122.456361,37.3893805 123.266197,37.0501475 124.013738,36.5073746 C124.760656,35.9646018 125.446525,35.3539823 126.131148,34.539823 C126.817016,33.7256637 127.439967,32.7758112 128,31.6902655 L124.138328,29.3156342 C123.203279,30.8082596 122.393443,31.9616519 121.70882,32.5722714" id="Fill-10" fill="#FFFFFF" mask="url(#mask-2)"></path>
                    <polygon id="Fill-11" fill="#FFFFFF" mask="url(#mask-2)" points="144.098901 24.1588785 151.813187 15 145.879121 15 141.197802 20.7943925 136.516484 15 130.78022 15 138.296703 24.1588785 129 35 134.934066 35 141.197802 27.5233645 147.263736 35 153 35"></polygon>
                    <path d="M105,15.1885099 L105,8.4021544 C105,6.07540395 104.130282,4.07181329 102.457746,2.45601436 C100.785211,0.775583483 98.778169,0 96.3697183,0 C94.028169,0 91.9542254,0.84021544 90.2816901,2.45601436 C88.6091549,4.07181329 87.7394366,6.07540395 87.7394366,8.4021544 L87.7394366,15.1885099 L86,15.1885099 L86,20.4883303 L87.7394366,20.4883303 L87.7394366,36 L92.6232394,36 L92.6232394,20.4883303 L98.2429577,20.4883303 L98.2429577,15.1885099 L92.6232394,15.1885099 L92.6232394,8.4021544 C92.6232394,7.30341113 92.9577465,6.39856373 93.693662,5.62298025 C94.4295775,4.84739677 95.2992958,4.45960503 96.3697183,4.45960503 C97.4401408,4.45960503 98.3098592,4.84739677 99.0457746,5.68761221 C99.7816901,6.46319569 100.116197,7.43267504 100.116197,8.46678636 L100.116197,15.2531418 L105,15.2531418 L105,15.1885099 Z" id="Fill-12" fill="#FFFFFF" mask="url(#mask-2)"></path>
                    <path d="M111.472868,38.8702703 L111.472868,42.6330811 C111.472868,43.7351351 111.162791,44.6432432 110.48,45.4222703 C109.79845,46.2006486 108.992248,46.5891892 107.99938,46.5891892 C107.007752,46.5891892 106.20155,46.2006486 105.51876,45.3567568 C104.837209,44.579027 104.527132,43.6060541 104.527132,42.5675676 L104.527132,35.7567568 L104.527132,15 L100,15 L100,35.7567568 L100,42.5675676 C100,44.9033514 100.806202,46.9135135 102.356589,48.5351351 C103.906977,50.2216216 105.767442,51 107.99938,51 C110.169922,51 112.093023,50.1567568 113.643411,48.5351351 C115.193798,46.9135135 116,44.9033514 116,42.5675676 L116,38.8054054 L111.472868,38.8054054 L111.472868,38.8702703 Z" id="Fill-13" fill="#FFFFFF" mask="url(#mask-2)"></path>
                </g>
            </g>
        </g>
    </g>
</svg>